<?xml version="1.0" standalone="no"?>
<!DOCTYPE svg PUBLIC "-//W3C//DTD SVG 20010904//EN"
 "http://www.w3.org/TR/2001/REC-SVG-20010904/DTD/svg10.dtd">
<svg version="1.0" xmlns="http://www.w3.org/2000/svg"
 width="670.000000pt" height="670.000000pt" viewBox="0 0 670.000000 670.000000"
 preserveAspectRatio="xMidYMid meet">
<metadata>
Created by potrace 1.14, written by Peter Selinger 2001-2017
</metadata>
<g transform="translate(0.000000,670.000000) scale(0.100000,-0.100000)"
fill="#000000" stroke="none">
<path d="M1110 6220 c-255 -22 -457 -117 -640 -300 -148 -148 -257 -342 -295
-525 -60 -291 -8 -559 155 -800 86 -126 208 -230 490 -418 209 -139 343 -249
526 -431 323 -324 535 -643 707 -1067 156 -384 230 -731 283 -1329 20 -232 56
-378 129 -525 81 -162 204 -302 352 -397 67 -44 214 -101 318 -125 103 -23
323 -19 450 7 177 36 388 161 501 296 172 205 243 400 274 749 6 72 16 168 22
215 5 47 11 103 13 125 3 33 38 263 50 326 35 179 95 393 159 567 64 171 218
483 302 612 270 416 571 714 1021 1013 388 258 535 448 604 782 15 73 14 276
-1 354 -43 216 -139 400 -293 558 -215 221 -469 323 -778 310 -227 -8 -353
-59 -749 -299 -113 -68 -237 -139 -277 -158 l-72 -35 -4 -995 c-3 -983 -3
-996 -25 -1072 -136 -490 -543 -797 -1026 -775 -416 18 -763 270 -906 658 -65
174 -64 157 -66 1209 -1 525 -2 960 -3 967 -1 6 -31 25 -68 43 -38 17 -132 70
-211 118 -78 48 -175 106 -215 130 -292 173 -495 232 -727 212z"/>
<path d="M3170 5681 c-154 -42 -314 -158 -387 -281 -49 -81 -63 -113 -85 -182
l-23 -73 0 -690 0 -690 27 -80 c38 -112 92 -198 170 -277 207 -205 509 -254
776 -125 70 33 104 58 173 127 71 70 94 100 127 170 74 155 72 132 72 879 0
752 3 721 -77 880 -69 139 -187 250 -331 312 -113 49 -319 63 -442 30z"/>
</g>
</svg>
